<?xml version="1.0" standalone="no"?>
<!DOCTYPE svg PUBLIC "-//W3C//DTD SVG 20010904//EN"
 "http://www.w3.org/TR/2001/REC-SVG-20010904/DTD/svg10.dtd">
<svg version="1.0" xmlns="http://www.w3.org/2000/svg"
 width="570.000000pt" height="276.000000pt" viewBox="0 0 570.000000 276.000000"
 preserveAspectRatio="xMidYMid meet">

<g transform="translate(0.000000,276.000000) scale(0.100000,-0.100000)"
fill="#000000" stroke="none">
<path d="M5053 2022 c-12 -2 -34 -17 -48 -33 -25 -30 -25 -32 -25 -219 0 -242
7 -233 -135 -184 -75 26 -233 23 -309 -5 -157 -57 -255 -163 -291 -313 -32
-136 -9 -264 66 -377 86 -129 215 -193 394 -194 86 0 192 25 201 47 7 18 -35
156 -47 156 -6 0 -29 -10 -52 -22 -63 -33 -157 -32 -217 4 -103 61 -153 148
-153 263 1 190 99 300 268 299 109 0 185 -49 231 -149 20 -44 24 -72 30 -225
7 -214 14 -243 68 -296 56 -56 129 -78 239 -72 68 4 83 8 99 28 42 52 8 112
-71 124 -62 9 -97 31 -112 68 -10 25 -15 152 -19 538 -4 385 -8 510 -18 528
-7 12 -14 22 -15 22 -1 0 -16 4 -32 8 -17 4 -40 6 -52 4z"/>
<path d="M2339 1991 l-29 -30 2 -596 3 -597 28 -24 c47 -40 126 -27 146 25 5
14 12 72 16 129 3 57 8 109 12 117 12 32 16 29 233 -155 69 -59 136 -114 150
-123 69 -47 164 18 146 101 -8 36 -59 85 -306 297 -107 92 -203 179 -212 193
-16 24 -18 57 -18 288 0 308 -4 345 -38 379 -36 37 -94 35 -133 -4z"/>
<path d="M795 1920 c-12 -4 -26 -14 -32 -21 -12 -16 -333 -747 -333 -760 0
-25 203 6 235 35 13 11 42 69 65 128 49 127 70 158 97 142 21 -13 154 -330
150 -359 -2 -19 -12 -20 -202 -27 -137 -4 -219 -11 -260 -23 -128 -35 -220
-126 -220 -218 0 -42 4 -52 33 -78 25 -23 42 -29 77 -29 39 0 47 4 77 41 53
67 78 88 117 99 20 5 131 10 247 10 233 0 226 2 254 -68 20 -50 64 -82 114
-82 23 0 52 7 64 16 33 23 55 72 49 109 -11 69 -441 1042 -474 1073 -26 24
-29 25 -58 12z"/>
<path d="M1747 1586 c-140 -58 -232 -171 -257 -316 -7 -39 -10 -151 -8 -281 3
-196 5 -219 22 -238 25 -27 78 -37 117 -21 54 23 59 46 59 292 0 194 3 228 19
263 23 51 79 101 131 116 37 11 51 10 133 -14 89 -26 92 -26 127 -9 65 32 71
119 10 162 -16 11 -58 32 -95 45 -88 33 -178 34 -258 1z"/>
<path d="M3350 1552 c-38 -39 -41 -88 -6 -129 24 -28 25 -28 176 -34 l153 -5
28 -32 c29 -33 39 -85 19 -97 -6 -4 -50 -8 -98 -10 -221 -10 -375 -74 -427
-178 -63 -127 -6 -279 127 -338 42 -18 76 -24 162 -27 127 -5 177 6 194 43 17
38 15 53 -13 80 -22 23 -32 25 -115 25 -98 0 -137 12 -164 52 -34 49 -9 120
53 153 38 19 192 47 243 43 l43 -3 8 -78 c11 -114 40 -182 101 -243 38 -37 65
-54 98 -62 94 -24 186 -8 202 33 20 53 -12 98 -78 111 -53 9 -105 58 -116 109
-5 22 -10 105 -10 185 -1 223 -29 310 -121 372 -64 43 -102 51 -271 55 l-158
5 -30 -30z"/>
</g>
</svg>
