<?xml version="1.0" standalone="no"?>
<!DOCTYPE svg PUBLIC "-//W3C//DTD SVG 20010904//EN"
 "http://www.w3.org/TR/2001/REC-SVG-20010904/DTD/svg10.dtd">
<svg version="1.0" xmlns="http://www.w3.org/2000/svg"
 width="203.000000pt" height="196.000000pt" viewBox="0 0 203.000000 196.000000"
 preserveAspectRatio="xMidYMid meet">

<g transform="translate(0.000000,196.000000) scale(0.100000,-0.100000)"
fill="#000000" stroke="none">
<path d="M875 1148 c-3 -8 -4 -86 -3 -173 3 -152 4 -160 23 -160 16 0 21 8 23
38 2 20 8 37 14 37 5 0 30 -18 55 -40 52 -45 55 -46 74 -24 12 15 4 25 -64 88
l-77 71 -2 85 c-3 72 -6 85 -21 88 -9 2 -19 -3 -22 -10z"/>
<path d="M1587 1154 c-4 -4 -7 -32 -7 -61 l0 -54 -44 6 c-61 9 -113 -9 -137
-49 -34 -55 -18 -134 33 -170 28 -20 128 -22 128 -3 0 22 -16 38 -33 31 -30
-11 -66 5 -82 37 -22 42 -6 92 36 109 27 11 34 10 57 -7 22 -16 28 -31 33 -79
8 -75 16 -93 44 -100 60 -15 94 15 45 39 -25 12 -25 15 -30 157 -4 120 -8 145
-20 148 -9 1 -19 0 -23 -4z"/>
<path d="M456 1122 c-15 -24 -85 -196 -82 -200 3 -2 18 -1 34 3 23 5 33 16 47
48 l17 42 23 -50 c12 -27 21 -53 18 -57 -2 -5 -33 -8 -69 -8 -56 0 -68 -3 -90
-25 -27 -27 -28 -42 -1 -59 12 -8 22 -5 40 12 19 18 35 22 85 22 52 0 63 -3
72 -21 13 -24 53 -23 58 2 2 9 -25 80 -59 158 -55 127 -77 158 -93 133z"/>
<path d="M684 1016 c-33 -33 -34 -36 -34 -114 0 -64 3 -81 16 -86 27 -10 34 3
34 70 0 56 4 68 24 89 21 21 29 23 52 15 22 -9 31 -7 43 5 15 15 14 18 -8 36
-38 31 -87 25 -127 -15z"/>
<path d="M1142 1018 c2 -19 10 -24 45 -26 23 -2 47 -10 53 -17 14 -17 7 -21
-58 -28 -55 -7 -82 -30 -82 -73 0 -44 33 -66 92 -62 56 4 61 31 6 36 -70 6
-53 62 19 62 30 0 33 -3 33 -28 0 -41 34 -74 73 -70 38 4 42 24 7 41 -22 11
-26 21 -30 79 -7 90 -24 108 -102 108 -56 0 -59 -1 -56 -22z"/>
</g>
</svg>
